<svg xmlns="http://www.w3.org/2000/svg" width="4405" height="1724" viewBox="0 0 4405 1724" version="1.1"><path d="M 1622 267.524 C 1579.079 273.479, 1538.902 291.121, 1506.286 318.334 C 1463.065 354.395, 1434.823 403.289, 1425.588 458.039 C 1422.620 475.634, 1422.041 497.008, 1422.021 589.750 L 1422 682 1477.451 682 L 1532.902 682 1533.261 581.750 C 1533.610 484.376, 1533.680 481.242, 1535.704 472.500 C 1546.857 424.335, 1581.141 390.042, 1629.500 378.683 L 1638.500 376.569 1863.750 376.259 L 2089 375.950 2089 320.975 L 2089 266 1860.250 266.103 C 1676.869 266.186, 1629.616 266.467, 1622 267.524 M 2328 267.524 C 2253.493 277.862, 2189.729 322.798, 2154.210 390 C 2143.381 410.490, 2134.867 436.674, 2130.823 461.927 C 2128.715 475.089, 2128.638 478.607, 2128.258 578.220 L 2127.866 680.939 1880.183 681.253 L 1632.500 681.567 1619.253 683.737 C 1556.028 694.095, 1503.187 726.197, 1466.561 776.500 C 1444.446 806.874, 1431.088 839.471, 1424.763 878.500 C 1422.732 891.028, 1422.641 895.469, 1422.258 1000.750 L 1421.859 1110 1477.383 1110 L 1532.907 1110 1533.261 1003.750 C 1533.606 900.126, 1533.666 897.278, 1535.707 888.500 C 1541.510 863.542, 1551.491 845.327, 1568.909 827.909 C 1586.306 810.512, 1604.379 800.600, 1629.500 794.678 L 1638.500 792.556 1883.250 792.259 L 2128 791.961 2128.004 849.230 C 2128.006 880.729, 2128.476 912.800, 2129.049 920.500 C 2132.814 971.149, 2153.854 1016.286, 2190.145 1051.567 C 2220.234 1080.819, 2255.394 1098.628, 2299 1106.703 C 2307.872 1108.346, 2324.592 1108.481, 2551.750 1108.749 L 2795 1109.035 2795 1053.532 L 2795 998.028 2555.250 997.761 L 2315.500 997.494 2308.067 995.193 C 2298.164 992.127, 2287.669 987.199, 2279.878 981.957 C 2265.779 972.471, 2251.908 955.164, 2245.883 939.541 C 2240.371 925.248, 2239.594 919.757, 2239.576 895 C 2239.562 875.007, 2239.808 871.511, 2241.791 863.623 C 2244.475 852.945, 2250.359 840.044, 2256.370 831.656 C 2261.493 824.507, 2273.373 812.818, 2280.327 808.084 C 2287.541 803.173, 2300.649 797.323, 2310.107 794.794 L 2318.500 792.549 2501.750 792.251 L 2685 791.954 2685 736.477 L 2685 681 2461.955 681 L 2238.910 681 2239.261 581.250 C 2239.602 484.292, 2239.670 481.248, 2241.700 472.500 C 2247.419 447.851, 2259.098 426.770, 2275.959 410.662 C 2293.237 394.155, 2311.645 384.267, 2335.500 378.680 C 2344.481 376.576, 2344.950 376.571, 2555.750 376.259 L 2767 375.946 2767 320.973 L 2767 266 2552.250 266.103 C 2380.455 266.185, 2335.600 266.470, 2328 267.524 M 2834.002 586.750 C 2834.004 796.639, 2834.360 912.166, 2835.031 921 C 2837.031 947.294, 2843.277 970.637, 2854.531 993.869 C 2865.673 1016.871, 2877.949 1033.890, 2896.170 1051.597 C 2925.721 1080.314, 2959.886 1097.873, 3002.500 1106.244 L 3013.500 1108.405 3257.250 1108.722 L 3501 1109.039 3501 1053.534 L 3501 998.028 3261.250 997.764 L 3021.500 997.500 3012.703 994.741 C 2995.975 989.494, 2983.689 981.973, 2971.500 969.520 C 2957.728 955.449, 2948.419 936.252, 2946.046 917.026 C 2945.338 911.289, 2945 804.810, 2945 587.276 L 2945 266 2889.500 266 L 2834 266 2834.002 586.750 M 3540 320.984 L 3540 376 3799.039 376 C 3977.282 376, 4061.089 376.336, 4067.728 377.076 C 4106.654 381.417, 4138.082 408.710, 4148.244 447 L 4150.500 455.500 4150.500 687 L 4150.500 918.500 4148.257 927.301 C 4139.960 959.852, 4116.333 984.378, 4083.288 994.743 L 4074.500 997.500 3862.750 997.766 L 3651 998.032 3650.996 768.766 C 3650.992 519.424, 3651.247 531.201, 3645.467 513.495 C 3635.577 483.200, 3613.912 457.862, 3585.443 443.297 C 3579.974 440.499, 3571.880 437.074, 3567.456 435.686 C 3560.352 433.458, 3556.330 432.586, 3543.250 430.442 L 3540 429.909 3540 769.472 L 3540 1109.035 3811.250 1108.722 L 4082.500 1108.409 4093.500 1106.233 C 4123.373 1100.323, 4146.401 1091.224, 4169.500 1076.203 C 4181.440 1068.438, 4189.549 1061.856, 4200.876 1050.738 C 4235.890 1016.369, 4256.470 972.808, 4260.990 923.500 C 4262.374 908.404, 4262.351 466.661, 4260.966 451 C 4255.454 388.699, 4222.149 332.948, 4170 298.728 C 4149.196 285.076, 4125.206 275.140, 4099 269.320 L 4086.500 266.544 3813.250 266.256 L 3540 265.968 3540 320.984 M 540.974 373.872 C 537.307 377.539, 536.325 381.370, 538.116 385.025 C 538.877 386.578, 568.750 416.243, 604.500 450.947 C 656.463 501.389, 670.231 514.242, 673.144 515.032 C 675.501 515.671, 744.593 515.928, 868.644 515.760 C 1050.051 515.514, 1060.641 515.404, 1063.096 513.736 C 1066.207 511.622, 1068 508.009, 1068 503.853 C 1068 501.475, 1066.731 499.524, 1062.250 495.016 C 1056.128 488.857, 953.256 389.124, 941.294 377.750 L 934.194 371 739.020 371 L 543.846 371 540.974 373.872 M 453.449 386.551 C 446.658 389.903, 446.999 385.405, 447.014 471.654 C 447.021 514.469, 447.292 550.488, 447.616 551.695 C 448.080 553.425, 581.612 684.116, 657.129 756.750 L 670.905 770 866.052 770 L 1061.200 770 1064.600 766.600 C 1067.256 763.944, 1068 762.381, 1068 759.455 C 1068 756.080, 1067.138 754.850, 1059.250 746.980 C 1050.457 738.205, 945.635 636.544, 938.634 630 L 934.889 626.500 768.362 626 L 601.836 625.500 598.918 622.234 L 596 618.968 596 567.987 L 596 517.006 592.296 512.906 C 585.780 505.693, 463.873 387.548, 461.644 386.285 C 458.815 384.683, 457.123 384.738, 453.449 386.551 M 452.763 641.565 C 446.699 644.855, 447 638.951, 447.005 754.700 C 447.010 853.641, 447.124 860.674, 448.755 863.188 C 450.140 865.321, 507.079 920.936, 573.628 985.157 C 582.358 993.582, 584.430 994.381, 590.033 991.483 C 596.329 988.227, 596 994.481, 596 878.198 L 596 772.296 593.750 769.221 C 590.768 765.145, 464.601 642.905, 461.730 641.310 C 458.788 639.675, 456.105 639.752, 452.763 641.565 M 3933.596 1272.468 C 3927.747 1281.525, 3922.697 1289.625, 3922.374 1290.468 C 3921.874 1291.771, 3923.070 1292, 3930.360 1292 L 3938.933 1292 3953.467 1274.801 C 3961.460 1265.341, 3968 1257.241, 3968 1256.801 C 3968 1256.360, 3962.652 1256, 3956.115 1256 L 3944.229 1256 3933.596 1272.468 M 3003.500 1300.058 C 2983.236 1301.879, 2968.501 1311.957, 2963.885 1327.152 C 2959.661 1341.060, 2962.736 1356.669, 2971.408 1365.341 C 2978.964 1372.897, 2990.102 1376.824, 3010 1378.948 C 3029.576 1381.037, 3035.811 1382.978, 3041.192 1388.658 C 3046.366 1394.120, 3046.467 1404.077, 3041.415 1410.700 C 3040.019 1412.531, 3036.541 1415.260, 3033.688 1416.765 C 3028.837 1419.323, 3027.689 1419.500, 3016 1419.500 C 3004.319 1419.500, 3003.124 1419.316, 2997.770 1416.686 C 2990.876 1413.301, 2986.527 1408.319, 2984.293 1401.250 L 2982.635 1396 2971.817 1396 C 2959.295 1396, 2959.537 1395.721, 2963.037 1406.110 C 2965.765 1414.208, 2968.665 1418.579, 2975.382 1424.718 C 2985.827 1434.264, 2998.016 1438.189, 3017 1438.120 C 3034.796 1438.055, 3047.193 1433.907, 3056.030 1425.060 C 3073.655 1407.416, 3068.805 1375.970, 3046.805 1365.259 C 3039.399 1361.653, 3030.350 1359.596, 3012.570 1357.476 C 2995.426 1355.432, 2988.258 1352.206, 2984.405 1344.800 C 2981.284 1338.801, 2983.986 1329.630, 2990.442 1324.308 C 2995.532 1320.113, 3002.730 1318, 3011.933 1318 C 3029.445 1318, 3037.844 1324.235, 3042.579 1340.750 C 3042.837 1341.649, 3045.924 1342, 3053.582 1342 L 3064.227 1342 3063.524 1337.309 C 3059.663 1311.566, 3036.363 1297.106, 3003.500 1300.058 M 4186.951 1299.995 C 4169.346 1302.796, 4153.976 1313.942, 4145.602 1329.978 C 4132.774 1354.549, 4133.483 1390.966, 4147.205 1412.196 C 4154.849 1424.023, 4167.050 1432.910, 4180.592 1436.516 C 4188.421 1438.601, 4206.527 1438.605, 4214.500 1436.523 C 4238.054 1430.374, 4253.665 1411.791, 4258.033 1384.702 C 4259.578 1375.119, 4258.784 1356.172, 4256.454 1347 C 4252.435 1331.178, 4242.598 1316.574, 4230.596 1308.607 C 4219.571 1301.289, 4201.377 1297.699, 4186.951 1299.995 M 2459 1368.909 L 2459 1437 2469 1437 L 2479 1437 2479 1413 L 2479 1389 2501.290 1389 C 2525.584 1389, 2531.241 1388.171, 2540.199 1383.295 C 2542.866 1381.844, 2547.094 1378.469, 2549.594 1375.796 C 2564.337 1360.034, 2564.454 1331.314, 2549.840 1315.434 C 2544.479 1309.610, 2540.003 1306.727, 2531.829 1303.835 C 2525.864 1301.725, 2523.587 1301.574, 2492.250 1301.207 L 2459 1300.817 2459 1368.909 M 2578 1369 L 2578 1437 2624.500 1437 L 2671 1437 2671 1427 L 2671 1417 2635 1417 L 2599 1417 2599 1397.500 L 2599 1378 2632.500 1378 L 2666 1378 2666 1368 L 2666 1358 2632.500 1358 L 2599 1358 2599 1339.500 L 2599 1321 2635 1321 L 2671 1321 2671 1311 L 2671 1301 2624.500 1301 L 2578 1301 2578 1369 M 2690 1369 L 2690 1437 2700.500 1437 L 2711 1437 2711 1410.500 L 2711 1384 2728.250 1384.024 C 2747.286 1384.051, 2752.628 1384.868, 2758.339 1388.622 C 2764.585 1392.728, 2766.793 1398.978, 2769.253 1419.512 L 2771.349 1437 2781.674 1437 C 2790.844 1437, 2791.999 1436.804, 2791.993 1435.250 C 2791.978 1431.221, 2787.840 1399.180, 2786.861 1395.517 C 2784.785 1387.744, 2781.138 1382.044, 2776.263 1378.952 C 2773.703 1377.328, 2771.022 1376, 2770.304 1376 C 2767.871 1376, 2769.037 1374.507, 2772.836 1372.758 C 2790.179 1364.777, 2797.080 1340.905, 2787.507 1322.014 C 2784.513 1316.105, 2776.321 1308.494, 2769.687 1305.457 C 2761.707 1301.804, 2753.215 1301.041, 2720.250 1301.020 L 2690 1301 2690 1369 M 2810 1369 L 2810 1437 2820.500 1437 L 2831 1437 2831 1410 L 2831 1383 2864.500 1383 L 2898 1383 2898 1373 L 2898 1363 2864.500 1363 L 2831 1363 2831 1342 L 2831 1321 2867 1321 L 2903 1321 2903 1311 L 2903 1301 2856.500 1301 L 2810 1301 2810 1369 M 2922 1369 L 2922 1437 2932.500 1437 L 2943 1437 2943 1369 L 2943 1301 2932.500 1301 L 2922 1301 2922 1369 M 3126 1369.079 L 3126 1437.158 3160.750 1436.768 C 3193.524 1436.399, 3195.837 1436.252, 3201.420 1434.184 C 3218.919 1427.701, 3230.382 1414.601, 3236.185 1394.455 C 3239.395 1383.309, 3239.392 1359.420, 3236.178 1347.658 C 3229.105 1321.775, 3211.929 1305.441, 3188.172 1302.005 C 3184.502 1301.474, 3169.012 1301.031, 3153.750 1301.020 L 3126 1301 3126 1369.079 M 3257 1369 L 3257 1437 3303.500 1437 L 3350 1437 3350 1427 L 3350 1417 3314 1417 L 3278 1417 3278 1397.500 L 3278 1378 3311.500 1378 L 3345 1378 3345 1368 L 3345 1358 3311.500 1358 L 3278 1358 3278 1339.500 L 3278 1321 3314 1321 L 3350 1321 3350 1311 L 3350 1301 3303.500 1301 L 3257 1301 3257 1369 M 3453.526 1302.750 C 3453.147 1303.713, 3442.337 1333.525, 3429.504 1369 C 3416.670 1404.475, 3405.853 1434.302, 3405.466 1435.283 C 3404.810 1436.941, 3405.582 1437.046, 3416.549 1436.783 L 3428.337 1436.500 3433.752 1420.250 L 3439.167 1404 3465.833 1404.005 L 3492.500 1404.010 3498.113 1420.255 L 3503.725 1436.500 3514.863 1436.783 C 3522.555 1436.978, 3526 1436.721, 3526 1435.951 C 3526 1435.337, 3515.597 1405.960, 3502.882 1370.668 C 3490.167 1335.376, 3479.323 1305.263, 3478.784 1303.750 L 3477.804 1301 3466.009 1301 C 3455.705 1301, 3454.127 1301.221, 3453.526 1302.750 M 3542 1369 L 3542 1437 3583.500 1437 L 3625 1437 3625 1427 L 3625 1417 3594 1417 L 3563 1417 3563 1359 L 3563 1301 3552.500 1301 L 3542 1301 3542 1369 M 3640.199 1349.250 C 3640.515 1396.809, 3640.553 1397.593, 3642.842 1403.962 C 3644.119 1407.516, 3646.340 1412.430, 3647.777 1414.883 C 3653.757 1425.087, 3666.119 1433.968, 3678.500 1436.955 C 3685.555 1438.657, 3702.291 1438.419, 3709.425 1436.515 C 3726.084 1432.070, 3738.399 1419.632, 3743.729 1401.869 C 3745.086 1397.349, 3745.404 1388.950, 3745.739 1348.750 L 3746.138 1301 3735.623 1301 L 3725.109 1301 3724.769 1347.750 C 3724.378 1401.626, 3724.533 1400.598, 3715.472 1409.659 C 3709.374 1415.757, 3703.292 1418, 3692.856 1418 C 3683.363 1418, 3675.760 1415.028, 3669.897 1409.025 C 3661.516 1400.444, 3661.595 1401.002, 3661.229 1347.750 L 3660.908 1301 3650.393 1301 L 3639.878 1301 3640.199 1349.250 M 3765 1368.974 L 3765 1437 3775.500 1437 L 3786 1437 3786.046 1385.250 L 3786.092 1333.500 3805.445 1385 L 3824.799 1436.500 3834.650 1436.775 L 3844.500 1437.051 3864 1385.182 L 3883.500 1333.314 3883.759 1385.157 L 3884.018 1437 3894.509 1437 L 3905 1437 3905 1368.975 L 3905 1300.949 3889.269 1301.225 L 3873.539 1301.500 3854.447 1353.239 C 3843.946 1381.696, 3835.151 1405.182, 3834.903 1405.431 C 3834.654 1405.679, 3825.683 1382.396, 3814.968 1353.691 L 3795.485 1301.500 3780.242 1301.224 L 3765 1300.948 3765 1368.974 M 3925 1369 L 3925 1437 3935.500 1437 L 3946 1437 3946 1369 L 3946 1301 3935.500 1301 L 3925 1301 3925 1369 M 3966 1369 L 3966 1437 3976.491 1437 L 3986.982 1437 3987.241 1384.818 L 3987.500 1332.636 4021 1384.808 L 4054.500 1436.981 4065.750 1436.990 L 4077 1437 4077 1369 L 4077 1301 4066.509 1301 L 4056.018 1301 4055.759 1350.985 L 4055.500 1400.971 4024.001 1350.985 L 3992.501 1301 3979.251 1301 L 3966 1301 3966 1369 M 4097 1369 L 4097 1437 4107.500 1437 L 4118 1437 4118 1369 L 4118 1301 4107.500 1301 L 4097 1301 4097 1369 M 4187.718 1320.034 C 4175.254 1323.157, 4165.482 1333.327, 4160.915 1347.928 C 4158.267 1356.390, 4157.297 1373.933, 4158.939 1383.653 C 4161.947 1401.457, 4172.674 1414.067, 4187.853 1417.640 C 4208.776 1422.564, 4226.912 1412.704, 4234.090 1392.500 C 4237.006 1384.293, 4237.841 1363.567, 4235.667 1353.343 C 4232.506 1338.466, 4225.389 1328.286, 4214.352 1322.852 C 4208.869 1320.153, 4206.488 1319.587, 4199.655 1319.359 C 4195.170 1319.209, 4189.798 1319.513, 4187.718 1320.034 M 2479 1345 L 2479 1370.145 2499.826 1369.822 L 2520.651 1369.500 2526.542 1366.485 C 2533.902 1362.718, 2537.840 1356.953, 2538.692 1348.699 C 2539.898 1337.008, 2535.343 1327.789, 2526.121 1323.261 C 2520.616 1320.557, 2520.071 1320.493, 2499.750 1320.178 L 2479 1319.855 2479 1345 M 2711 1342.430 L 2711 1365 2732.250 1364.990 C 2752.454 1364.981, 2753.746 1364.865, 2758.500 1362.632 C 2761.250 1361.340, 2764.270 1359.416, 2765.212 1358.355 C 2770.094 1352.856, 2771.688 1340.977, 2768.552 1333.471 C 2766.474 1328.498, 2763.587 1325.390, 2758.500 1322.653 C 2754.819 1320.672, 2752.764 1320.474, 2732.750 1320.180 L 2711 1319.860 2711 1342.430 M 3147 1369.539 L 3147 1418.223 3168.250 1417.830 C 3188.540 1417.454, 3189.751 1417.320, 3195.046 1414.867 C 3202.584 1411.375, 3207.093 1407.179, 3210.817 1400.192 C 3215.087 1392.181, 3216.971 1383.392, 3216.968 1371.500 C 3216.962 1347.963, 3209.043 1331.589, 3194.125 1324.262 C 3188.615 1321.557, 3188.074 1321.493, 3167.750 1321.178 L 3147 1320.855 3147 1369.539 M 3455.681 1355.733 C 3450.335 1371.555, 3445.970 1384.838, 3445.980 1385.250 C 3446.001 1386.020, 3486 1386.342, 3486 1385.572 C 3486 1384.820, 3466.811 1329.552, 3466.092 1328.233 C 3465.712 1327.536, 3461.027 1339.911, 3455.681 1355.733" stroke="none" fill="#fcfbfb" fill-rule="evenodd"/><path d="M 351.500 206.117 C 319.684 210.744, 292.997 234.548, 283.802 266.500 L 281.500 274.500 281.500 682 L 281.500 1089.500 283.792 1097.415 C 292.341 1126.935, 314.352 1148.447, 344 1156.260 L 352.500 1158.500 757 1158.500 C 1144.753 1158.500, 1161.831 1158.425, 1169.500 1156.678 C 1179.590 1154.380, 1195.694 1146.619, 1203.465 1140.311 C 1216.297 1129.894, 1227.515 1112.716, 1231.749 1097 C 1233.404 1090.858, 1233.500 1067.977, 1233.500 681.500 L 1233.500 272.500 1231.156 265.035 C 1221.096 232.998, 1194.910 210.447, 1162.678 206.064 C 1152.978 204.745, 360.577 204.796, 351.500 206.117 M 540.974 373.872 C 537.307 377.539, 536.325 381.370, 538.116 385.025 C 538.877 386.578, 568.750 416.243, 604.500 450.947 C 656.463 501.389, 670.231 514.242, 673.144 515.032 C 675.501 515.671, 744.593 515.928, 868.644 515.760 C 1050.051 515.514, 1060.641 515.404, 1063.096 513.736 C 1066.207 511.622, 1068 508.009, 1068 503.853 C 1068 501.475, 1066.731 499.524, 1062.250 495.016 C 1056.128 488.857, 953.256 389.124, 941.294 377.750 L 934.194 371 739.020 371 L 543.846 371 540.974 373.872 M 453.449 386.551 C 446.658 389.903, 446.999 385.405, 447.014 471.654 C 447.021 514.469, 447.292 550.488, 447.616 551.695 C 448.080 553.425, 581.612 684.116, 657.129 756.750 L 670.905 770 866.052 770 L 1061.200 770 1064.600 766.600 C 1067.256 763.944, 1068 762.381, 1068 759.455 C 1068 756.080, 1067.138 754.850, 1059.250 746.980 C 1050.457 738.205, 945.635 636.544, 938.634 630 L 934.889 626.500 768.362 626 L 601.836 625.500 598.918 622.234 L 596 618.968 596 567.987 L 596 517.006 592.296 512.906 C 585.780 505.693, 463.873 387.548, 461.644 386.285 C 458.815 384.683, 457.123 384.738, 453.449 386.551 M 452.763 641.565 C 446.699 644.855, 447 638.951, 447.005 754.700 C 447.010 853.641, 447.124 860.674, 448.755 863.188 C 450.140 865.321, 507.079 920.936, 573.628 985.157 C 582.358 993.582, 584.430 994.381, 590.033 991.483 C 596.329 988.227, 596 994.481, 596 878.198 L 596 772.296 593.750 769.221 C 590.768 765.145, 464.601 642.905, 461.730 641.310 C 458.788 639.675, 456.105 639.752, 452.763 641.565" stroke="none" fill="#fc5404" fill-rule="evenodd"/></svg>