<svg xmlns="http://www.w3.org/2000/svg" width="1008" height="1021" viewBox="0 0 1008 1021" version="1.1"><path d="M 292.974 208.872 C 291.395 210.451, 289.794 212.972, 289.418 214.473 C 289.004 216.119, 289.281 218.321, 290.116 220.025 C 290.877 221.578, 320.750 251.243, 356.500 285.947 C 408.463 336.389, 422.231 349.242, 425.144 350.032 C 427.501 350.671, 496.593 350.928, 620.644 350.760 C 802.051 350.514, 812.641 350.404, 815.096 348.736 C 816.524 347.766, 818.211 345.832, 818.846 344.439 C 819.481 343.046, 820 340.532, 820 338.853 C 820 336.475, 818.731 334.524, 814.250 330.016 C 811.087 326.834, 784.176 300.667, 754.447 271.866 C 724.717 243.065, 697.199 216.463, 693.294 212.750 L 686.194 206 491.020 206 L 295.846 206 292.974 208.872 M 205.449 221.551 C 203.770 222.380, 201.633 224.351, 200.699 225.933 C 199.139 228.573, 199.001 235.192, 199.014 306.654 C 199.021 349.469, 199.292 385.488, 199.616 386.695 C 199.940 387.903, 244.113 431.553, 297.779 483.695 C 351.445 535.838, 401.552 584.462, 409.129 591.750 L 422.905 605 618.052 605 L 813.200 605 816.600 601.600 C 819.256 598.944, 820 597.381, 820 594.455 C 820 591.080, 819.138 589.850, 811.250 581.980 C 806.438 577.178, 778.173 549.680, 748.439 520.874 C 718.706 492.068, 692.693 466.925, 690.634 465 L 686.889 461.500 520.362 461 L 353.836 460.500 350.918 457.234 L 348 453.968 348 402.987 L 348 352.006 344.296 347.906 C 342.259 345.651, 312.511 316.512, 278.190 283.153 C 243.869 249.794, 214.823 221.953, 213.644 221.285 C 212.465 220.617, 210.825 220.065, 210 220.058 C 209.175 220.051, 207.127 220.723, 205.449 221.551 M 204.763 476.565 C 203.257 477.382, 201.344 479.367, 200.513 480.976 C 199.190 483.533, 199.001 497.214, 199.005 589.700 C 199.010 688.641, 199.124 695.674, 200.755 698.188 C 201.715 699.666, 228.375 725.949, 260 756.594 C 291.625 787.240, 321.158 815.843, 325.628 820.157 C 331.645 825.963, 334.450 828, 336.427 828 C 337.897 828, 340.419 827.317, 342.033 826.483 C 343.646 825.649, 345.649 823.646, 346.483 822.033 C 347.811 819.465, 348 805.902, 348 713.198 L 348 607.296 345.750 604.221 C 344.512 602.529, 314.803 573.336, 279.730 539.347 C 244.656 505.358, 214.956 476.991, 213.730 476.310 C 212.503 475.628, 210.600 475.073, 209.500 475.075 C 208.400 475.078, 206.268 475.748, 204.763 476.565" stroke="none" fill="#fcfbfb" fill-rule="evenodd"/><path d="M 103.500 41.117 C 100.200 41.597, 94.575 42.931, 91 44.082 C 87.425 45.233, 81.037 47.973, 76.805 50.170 C 72.572 52.368, 66.079 56.716, 62.376 59.833 C 58.673 62.950, 53.248 68.646, 50.322 72.490 C 47.395 76.335, 43.449 82.635, 41.553 86.490 C 39.656 90.346, 37.068 97.100, 35.802 101.500 L 33.500 109.500 33.500 517 L 33.500 924.500 35.792 932.415 C 37.053 936.769, 39.672 943.493, 41.611 947.358 C 43.551 951.223, 46.098 955.761, 47.271 957.443 C 48.444 959.124, 51.225 962.695, 53.452 965.377 C 55.678 968.060, 60.587 972.675, 64.360 975.633 C 68.133 978.592, 74.883 982.814, 79.360 985.016 C 83.837 987.218, 91.325 990.028, 96 991.260 L 104.500 993.500 509 993.500 C 896.753 993.500, 913.831 993.425, 921.500 991.678 C 925.900 990.676, 934 987.673, 939.500 985.005 C 945 982.336, 952.184 977.974, 955.465 975.311 C 958.746 972.648, 964.069 967.326, 967.295 963.486 C 970.521 959.645, 975.148 952.452, 977.579 947.501 C 980.009 942.551, 982.786 935.575, 983.749 932 C 985.404 925.858, 985.500 902.977, 985.500 516.500 L 985.500 107.500 983.156 100.035 C 981.867 95.930, 979.451 89.855, 977.788 86.535 C 976.125 83.216, 972.809 77.742, 970.419 74.372 C 968.029 71.002, 963.019 65.444, 959.287 62.021 C 955.554 58.599, 949.453 53.987, 945.729 51.773 C 942.005 49.559, 935.255 46.483, 930.729 44.938 C 926.203 43.392, 918.980 41.649, 914.678 41.064 C 909.247 40.325, 784.980 40.037, 508.178 40.122 C 287.144 40.190, 106.826 40.633, 103.500 41.117 M 292.974 208.872 C 291.395 210.451, 289.794 212.972, 289.418 214.473 C 289.004 216.119, 289.281 218.321, 290.116 220.025 C 290.877 221.578, 320.750 251.243, 356.500 285.947 C 408.463 336.389, 422.231 349.242, 425.144 350.032 C 427.501 350.671, 496.593 350.928, 620.644 350.760 C 802.051 350.514, 812.641 350.404, 815.096 348.736 C 816.524 347.766, 818.211 345.832, 818.846 344.439 C 819.481 343.046, 820 340.532, 820 338.853 C 820 336.475, 818.731 334.524, 814.250 330.016 C 811.087 326.834, 784.176 300.667, 754.447 271.866 C 724.717 243.065, 697.199 216.463, 693.294 212.750 L 686.194 206 491.020 206 L 295.846 206 292.974 208.872 M 205.449 221.551 C 203.770 222.380, 201.633 224.351, 200.699 225.933 C 199.139 228.573, 199.001 235.192, 199.014 306.654 C 199.021 349.469, 199.292 385.488, 199.616 386.695 C 199.940 387.903, 244.113 431.553, 297.779 483.695 C 351.445 535.838, 401.552 584.462, 409.129 591.750 L 422.905 605 618.052 605 L 813.200 605 816.600 601.600 C 819.256 598.944, 820 597.381, 820 594.455 C 820 591.080, 819.138 589.850, 811.250 581.980 C 806.438 577.178, 778.173 549.680, 748.439 520.874 C 718.706 492.068, 692.693 466.925, 690.634 465 L 686.889 461.500 520.362 461 L 353.836 460.500 350.918 457.234 L 348 453.968 348 402.987 L 348 352.006 344.296 347.906 C 342.259 345.651, 312.511 316.512, 278.190 283.153 C 243.869 249.794, 214.823 221.953, 213.644 221.285 C 212.465 220.617, 210.825 220.065, 210 220.058 C 209.175 220.051, 207.127 220.723, 205.449 221.551 M 204.763 476.565 C 203.257 477.382, 201.344 479.367, 200.513 480.976 C 199.190 483.533, 199.001 497.214, 199.005 589.700 C 199.010 688.641, 199.124 695.674, 200.755 698.188 C 201.715 699.666, 228.375 725.949, 260 756.594 C 291.625 787.240, 321.158 815.843, 325.628 820.157 C 331.645 825.963, 334.450 828, 336.427 828 C 337.897 828, 340.419 827.317, 342.033 826.483 C 343.646 825.649, 345.649 823.646, 346.483 822.033 C 347.811 819.465, 348 805.902, 348 713.198 L 348 607.296 345.750 604.221 C 344.512 602.529, 314.803 573.336, 279.730 539.347 C 244.656 505.358, 214.956 476.991, 213.730 476.310 C 212.503 475.628, 210.600 475.073, 209.500 475.075 C 208.400 475.078, 206.268 475.748, 204.763 476.565" stroke="none" fill="#fc5404" fill-rule="evenodd"/></svg>
